<svg width="52" height="52" viewBox="0 0 52 52" fill="none" xmlns="http://www.w3.org/2000/svg">
<path d="M46.4337 21.3822H44.7184V21.2939H25.5529V29.8119H37.5878C35.832 34.7704 31.1141 38.3299 25.5529 38.3299C18.4968 38.3299 12.7758 32.609 12.7758 25.5529C12.7758 18.4968 18.4968 12.7758 25.5529 12.7758C28.81 12.7758 31.7732 14.0046 34.0294 16.0116L40.0527 9.98831C36.2494 6.44375 31.162 4.25781 25.5529 4.25781C13.7927 4.25781 4.25781 13.7927 4.25781 25.5529C4.25781 37.3131 13.7927 46.8479 25.5529 46.8479C37.3131 46.8479 46.8479 37.3131 46.8479 25.5529C46.8479 24.125 46.701 22.7313 46.4337 21.3822Z" fill="#FFC107"/>
<path d="M6.71484 15.6411L13.7113 20.7721C15.6045 16.0851 20.1893 12.7758 25.5546 12.7758C28.8117 12.7758 31.7749 14.0046 34.0311 16.0116L40.0544 9.98831C36.2511 6.44375 31.1637 4.25781 25.5546 4.25781C17.3752 4.25781 10.2818 8.87565 6.71484 15.6411Z" fill="#FF3D00"/>
<path d="M25.5556 46.8496C31.0561 46.8496 36.0541 44.7446 39.8329 41.3214L33.242 35.7443C31.0326 37.4256 28.332 38.3346 25.5556 38.3316C20.0167 38.3316 15.3137 34.7998 13.542 29.8711L6.59766 35.2215C10.122 42.1179 17.2793 46.8496 25.5556 46.8496Z" fill="#4CAF50"/>
<path d="M46.4356 21.3813H44.7202V21.293H25.5547V29.811H37.5896C36.7497 32.1709 35.2369 34.2331 33.2379 35.7427L33.2411 35.7406L39.832 41.3178C39.3656 41.7416 46.8497 36.1995 46.8497 25.552C46.8497 24.1241 46.7028 22.7304 46.4356 21.3813Z" fill="#1976D2"/>
</svg>
