<svg xmlns="http://www.w3.org/2000/svg" viewBox="0 0 26 28" fill="none" aria-hidden="true">
  <path
    d="M11.5004 27.1016C9.43156 27.1016 7.66694 26.7608 6.20657 26.0793C4.7462 25.3735 3.55357 24.4242 2.62867 23.2316C1.7281 22.0146 1.05877 20.6394 0.620657 19.106C0.206886 17.5483 0 15.9176 0 14.2138V0.960938H5.98752V14.2138C5.98752 15.1874 6.08487 16.1366 6.27959 17.0615C6.47431 17.9621 6.79072 18.7653 7.22883 19.4711C7.66694 20.177 8.22675 20.7368 8.90826 21.1506C9.6141 21.5643 10.4782 21.7712 11.5004 21.7712C12.547 21.7712 13.4232 21.5643 14.1291 21.1506C14.8349 20.7124 15.3947 20.1405 15.8085 19.4346C16.2223 18.7044 16.5265 17.8891 16.7212 16.9885C16.916 16.0879 17.0133 15.163 17.0133 14.2138L19.3885 16.5117C19.6665 16.7806 20.1047 16.7898 20.3937 16.5328L23.0008 14.2138C23.0008 16.0149 22.7696 17.6943 22.3071 19.2521C21.869 20.8098 21.1875 22.185 20.2626 23.3776C19.3377 24.5459 18.1451 25.4586 16.6847 26.1158C15.2487 26.773 13.5206 27.1016 11.5004 27.1016Z"
    fill="#0B0E14"
  />
  <path
    d="M15.6575 1.96845C17.9614 -0.333235 21.6971 -0.333235 24.0016 1.96845C26.3061 4.27014 26.3055 7.99981 24.0016 10.3015L23.1973 11.0954C22.4307 11.8455 21.6614 12.5929 20.8893 13.3375C20.605 13.612 20.225 13.7655 19.8296 13.7655C19.4341 13.7655 19.0541 13.612 18.7698 13.3375L16.4043 11.0385C16.107 10.747 15.8581 10.5012 15.6575 10.3008C14.5512 9.19576 13.9297 7.69703 13.9297 6.1343C13.9297 4.57157 14.5512 3.07284 15.6575 1.96778M19.8296 4.28977C19.5626 4.28977 19.2983 4.34229 19.0516 4.44432C18.805 4.54635 18.5809 4.6959 18.3922 4.88443C18.2034 5.07296 18.0536 5.29678 17.9515 5.54311C17.8493 5.78944 17.7968 6.05345 17.7968 6.32008C17.7968 6.5867 17.8493 6.85071 17.9515 7.09704C18.0536 7.34337 18.2034 7.56719 18.3922 7.75572C18.5809 7.94425 18.805 8.0938 19.0516 8.19583C19.2983 8.29786 19.5626 8.35038 19.8296 8.35038C20.3687 8.35038 20.8858 8.13647 21.267 7.75572C21.6482 7.37496 21.8624 6.85855 21.8624 6.32008C21.8624 5.7816 21.6482 5.26519 21.267 4.88443C20.8858 4.50368 20.3687 4.28977 19.8296 4.28977Z"
    fill="#0B0E14"
  />
</svg>
