<svg xmlns="http://www.w3.org/2000/svg" width="142" height="52" viewBox="0 0 142 52" fill="none"><path d="M137.391 52.0005C136.593 52.0005 135.883 51.8234 135.26 51.4691C134.638 51.1047 134.146 50.6087 133.786 49.9812C133.426 49.3536 133.246 48.64 133.246 47.8403C133.246 47.0306 133.426 46.3169 133.786 45.6995C134.146 45.0719 134.638 44.581 135.26 44.2267C135.883 43.8725 136.593 43.6953 137.391 43.6953C138.199 43.6953 138.914 43.8725 139.537 44.2267C140.17 44.581 140.661 45.0669 141.011 45.6843C141.371 46.3018 141.551 47.0204 141.551 47.8403C141.551 48.64 141.371 49.3536 141.011 49.9812C140.661 50.6087 140.17 51.1047 139.537 51.4691C138.914 51.8234 138.199 52.0005 137.391 52.0005ZM137.391 50.3759C137.839 50.3759 138.238 50.2747 138.588 50.0723C138.939 49.8698 139.211 49.5763 139.406 49.1916C139.61 48.807 139.712 48.3566 139.712 47.8403C139.712 47.314 139.61 46.8635 139.406 46.489C139.211 46.1044 138.939 45.8108 138.588 45.6084C138.238 45.406 137.844 45.3047 137.406 45.3047C136.958 45.3047 136.559 45.406 136.209 45.6084C135.869 45.8108 135.596 46.1044 135.392 46.489C135.187 46.8635 135.085 47.314 135.085 47.8403C135.085 48.3566 135.187 48.807 135.392 49.1916C135.596 49.5763 135.869 49.8698 136.209 50.0723C136.559 50.2747 136.954 50.3759 137.391 50.3759Z" fill="white"></path><path d="M125.187 43.6953C125.842 43.6953 126.421 43.8235 126.923 44.0798C127.435 44.3361 127.835 44.7309 128.122 45.2641C128.408 45.787 128.552 46.4637 128.552 47.2942V52.0005H126.631V47.5403C126.631 46.8123 126.472 46.2689 126.155 45.91C125.837 45.5512 125.381 45.3717 124.787 45.3717C124.367 45.3717 123.993 45.464 123.665 45.6486C123.348 45.8331 123.097 46.1049 122.912 46.4637C122.738 46.8226 122.651 47.2789 122.651 47.8325V52.0005H120.731V47.5403C120.731 46.8123 120.572 46.2689 120.254 45.91C119.937 45.5512 119.481 45.3717 118.887 45.3717C118.467 45.3717 118.093 45.464 117.765 45.6486C117.447 45.8331 117.196 46.1049 117.012 46.4637C116.838 46.8226 116.751 47.2789 116.751 47.8325V52.0005H114.83V43.7876H116.659V45.9716L116.336 45.3256C116.613 44.7924 117.012 44.3874 117.534 44.1106C118.067 43.8337 118.672 43.6953 119.348 43.6953C120.116 43.6953 120.782 43.885 121.345 44.2644C121.919 44.6437 122.298 45.2179 122.482 45.9869L121.729 45.7255C121.996 45.1103 122.436 44.6181 123.051 44.249C123.665 43.8799 124.377 43.6953 125.187 43.6953Z" fill="white"></path><path d="M108.197 52.0004V44.0076H109.89V52.0004H108.197ZM109.05 42.6905C108.734 42.6905 108.472 42.5807 108.265 42.3612C108.066 42.1417 107.967 41.8772 107.967 41.5679C107.967 41.2486 108.066 40.9842 108.265 40.7746C108.472 40.5551 108.734 40.4453 109.05 40.4453C109.366 40.4453 109.623 40.5501 109.822 40.7596C110.03 40.9592 110.133 41.2137 110.133 41.523C110.133 41.8523 110.034 42.1317 109.835 42.3612C109.637 42.5807 109.375 42.6905 109.05 42.6905Z" fill="white"></path><path d="M96.4102 51.9952V41.5234H98.2084V50.3497H103.271V51.9952H96.4102Z" fill="white"></path><path d="M79.2064 52.0005C78.3824 52.0005 77.6602 51.8234 77.0399 51.4691C76.4288 51.1047 75.9519 50.6087 75.6094 49.9812C75.276 49.3536 75.1094 48.64 75.1094 47.8403C75.1094 47.0306 75.2714 46.3169 75.5955 45.6995C75.9288 45.0719 76.3825 44.581 76.9565 44.2267C77.5398 43.8725 78.2018 43.6953 78.9426 43.6953C79.6647 43.6953 80.3082 43.8674 80.873 44.2115C81.4378 44.5557 81.8823 45.0416 82.2063 45.6691C82.5304 46.2967 82.6924 47.0356 82.6924 47.8859C82.6924 47.9669 82.6878 48.058 82.6785 48.1592C82.6785 48.2604 82.6739 48.3566 82.6646 48.4477H76.4843V47.1875H81.748L81.0675 47.5822C81.0767 47.1166 80.9888 46.7067 80.8036 46.3524C80.6184 45.9981 80.3638 45.7197 80.0397 45.5173C79.7249 45.3149 79.3592 45.2136 78.9426 45.2136C78.5166 45.2136 78.1417 45.3149 77.8176 45.5173C77.5028 45.7197 77.2528 46.0032 77.0676 46.3676C76.8917 46.7218 76.8037 47.1419 76.8037 47.6278V47.9314C76.8037 48.4173 76.9056 48.8475 77.1093 49.222C77.313 49.5965 77.6 49.885 77.9704 50.0874C78.3407 50.2899 78.7666 50.3911 79.2481 50.3911C79.6647 50.3911 80.0397 50.3203 80.3731 50.1785C80.7064 50.0368 81.0027 49.8141 81.2619 49.5105L82.1924 50.6796C81.8591 51.1047 81.4378 51.4337 80.9286 51.6665C80.4286 51.8892 79.8546 52.0005 79.2064 52.0005Z" fill="white"></path><path d="M68.5329 51.9974C67.6142 51.9974 66.9043 51.7673 66.4032 51.307C65.9021 50.8365 65.6515 50.1461 65.6515 49.2358V41.8867H67.609V49.1897C67.609 49.5784 67.7081 49.8802 67.9065 50.095C68.1153 50.3097 68.4024 50.4171 68.7678 50.4171C69.2063 50.4171 69.5717 50.3046 69.864 50.0796L70.4121 51.4451C70.1824 51.6292 69.9005 51.7673 69.5664 51.8593C69.2324 51.9514 68.8879 51.9974 68.5329 51.9974ZM64.2734 45.2928V43.7585H69.8483V45.2928H64.2734Z" fill="white"></path><path d="M57.6404 52.0004V44.0076H59.333V52.0004H57.6404ZM58.4934 42.6905C58.1775 42.6905 57.9157 42.5807 57.7081 42.3612C57.5095 42.1417 57.4102 41.8772 57.4102 41.5679C57.4102 41.2486 57.5095 40.9842 57.7081 40.7746C57.9157 40.5551 58.1775 40.4453 58.4934 40.4453C58.8094 40.4453 59.0667 40.5501 59.2653 40.7596C59.4729 40.9592 59.5767 41.2137 59.5767 41.523C59.5767 41.8523 59.4774 42.1317 59.2788 42.3612C59.0802 42.5807 58.8184 42.6905 58.4934 42.6905Z" fill="white"></path><path d="M51.6367 52.0004V40.4453H53.431V52.0019L51.6367 52.0004Z" fill="white"></path><path d="M40.8158 45.8767H46.0816V47.4774H40.8158V45.8767ZM40.9671 50.3646H46.9441V51.9952H39V41.5234H46.7323V43.154H40.9671V50.3646Z" fill="white"></path><path d="M15.7375 37.0879C12.9064 37.0879 10.4916 36.6216 8.49324 35.689C6.49483 34.7231 4.8628 33.4242 3.59714 31.7921C2.36478 30.1268 1.44885 28.245 0.849324 26.1466C0.283108 24.015 0 21.7834 0 19.452V1.31641H8.19348V19.452C8.19348 20.7842 8.3267 22.0832 8.59316 23.3489C8.85961 24.5812 9.2926 25.6803 9.89212 26.6462C10.4916 27.6121 11.2577 28.3782 12.1903 28.9444C13.1562 29.5106 14.3386 29.7937 15.7375 29.7937C17.1697 29.7937 18.3687 29.5106 19.3346 28.9444C20.3005 28.3449 21.0666 27.5622 21.6328 26.5963C22.199 25.5971 22.6153 24.4813 22.8818 23.2489C23.1482 22.0166 23.2815 20.7509 23.2815 19.452L26.7133 22.7722C26.9913 23.0411 27.4295 23.0503 27.7185 22.7932L31.4749 19.452C31.4749 21.9167 31.1585 24.2148 30.5257 26.3465C29.9262 28.4781 28.9936 30.3599 27.7279 31.992C26.4623 33.5907 24.8302 34.8397 22.8318 35.739C20.8667 36.6383 18.5019 37.0879 15.7375 37.0879Z" fill="#FABF24"></path><path d="M21.4269 2.6943C24.5796 -0.455392 29.6916 -0.455392 32.8452 2.6943C35.9988 5.84399 35.9978 10.9478 32.8452 14.0975L31.7445 15.1838C30.6955 16.2103 29.6427 17.2331 28.5863 18.252C28.1972 18.6277 27.6772 18.8377 27.1361 18.8377C26.5949 18.8377 26.0749 18.6277 25.6858 18.252L22.4488 15.106C22.042 14.7072 21.7014 14.3707 21.4269 14.0965C19.913 12.5843 19.0625 10.5334 19.0625 8.39496C19.0625 6.25648 19.913 4.20558 21.4269 2.69337M27.1361 5.87085C26.7708 5.87085 26.409 5.94271 26.0715 6.08234C25.734 6.22196 25.4274 6.42661 25.1691 6.6846C24.9107 6.94259 24.7058 7.24887 24.566 7.58596C24.4262 7.92304 24.3543 8.28432 24.3543 8.64917C24.3543 9.01403 24.4262 9.37531 24.566 9.71239C24.7058 10.0495 24.9107 10.3558 25.1691 10.6137C25.4274 10.8717 25.734 11.0764 26.0715 11.216C26.409 11.3556 26.7708 11.4275 27.1361 11.4275C27.8738 11.4275 28.5814 11.1348 29.1031 10.6137C29.6247 10.0927 29.9178 9.38603 29.9178 8.64917C29.9178 7.91232 29.6247 7.20564 29.1031 6.6846C28.5814 6.16357 27.8738 5.87085 27.1361 5.87085Z" fill="#FABF24"></path><path d="M130.352 10.8359C132.46 10.8359 134.339 11.2427 135.986 12.0563C137.667 12.8699 138.985 14.1228 139.941 15.8151C140.896 17.4748 141.374 19.6226 141.374 22.2586V37.196H135.195V23.0397C135.195 20.7291 134.635 19.0043 133.515 17.8653C132.428 16.7263 130.895 16.1568 128.918 16.1568C127.468 16.1568 126.183 16.4496 125.063 17.0354C123.942 17.6212 123.069 18.4999 122.443 19.6714C121.85 20.8104 121.553 22.2586 121.553 24.016V37.196H115.375V11.1288H121.257V18.1582L120.219 16.0103C121.142 14.3506 122.476 13.0814 124.223 12.2028C126.002 11.2915 128.045 10.8359 130.352 10.8359Z" fill="white"></path><path d="M106.413 36.8586V31.6541L106.074 30.5457V21.4378C106.074 19.6708 105.542 18.3054 104.477 17.3416C103.413 16.3457 101.799 15.8477 99.6379 15.8477C98.186 15.8477 96.7503 16.0726 95.3308 16.5224C93.9435 16.9722 92.7659 17.5986 91.798 18.4018L89.4267 14.0165C90.814 12.9563 92.4594 12.1692 94.3629 11.6552C96.2987 11.109 98.299 10.8359 100.364 10.8359C104.106 10.8359 106.994 11.7355 109.026 13.5346C111.091 15.3016 112.124 18.0484 112.124 21.7751V36.8586H106.413ZM98.2828 37.196C96.347 37.196 94.6532 36.8747 93.2014 36.2322C91.7496 35.5575 90.6204 34.6419 89.8138 33.4853C89.0395 32.2966 88.6523 30.9634 88.6523 29.4855C88.6523 28.0398 88.9911 26.7387 89.6686 25.5821C90.3784 24.4256 91.5237 23.51 93.1046 22.8353C94.6855 22.1606 96.7826 21.8233 99.3959 21.8233H106.897V25.8231H99.8314C97.7666 25.8231 96.3793 26.1604 95.6695 26.8351C94.9597 27.4776 94.6048 28.2808 94.6048 29.2446C94.6048 30.3369 95.0404 31.2043 95.9115 31.8469C96.7826 32.4894 97.9925 32.8107 99.5411 32.8107C101.025 32.8107 102.348 32.4733 103.509 31.7987C104.703 31.124 105.558 30.1281 106.074 28.8109L107.091 32.4251C106.51 33.9351 105.461 35.1077 103.945 35.943C102.461 36.7783 100.573 37.196 98.2828 37.196Z" fill="white"></path><path d="M71.7672 37.1929C69.4864 37.1929 67.4572 36.6964 65.6795 35.7032C63.9018 34.7101 62.4931 33.2204 61.4533 31.2341C60.4471 29.2148 59.944 26.6657 59.944 23.587C59.944 20.4752 60.4639 17.9261 61.5037 15.9398C62.577 13.9536 64.0025 12.4804 65.7801 11.5204C67.5914 10.5272 69.587 10.0307 71.7672 10.0307C74.4169 10.0307 76.748 10.5935 78.7605 11.719C80.8065 12.8446 82.4165 14.417 83.5904 16.4364C84.7979 18.4558 85.4016 20.8393 85.4016 23.587C85.4016 26.3347 84.7979 28.7182 83.5904 30.7376C82.4165 32.7569 80.8065 34.346 78.7605 35.5046C76.748 36.6302 74.4169 37.1929 71.7672 37.1929ZM56.875 36.8453V0H63.1639V16.4861L62.6608 23.5373L62.8621 30.5886V36.8453H56.875ZM71.0628 31.8797C72.5722 31.8797 73.9138 31.5486 75.0878 30.8865C76.2952 30.2244 77.2512 29.2644 77.9555 28.0064C78.6599 26.7485 79.0121 25.2753 79.0121 23.587C79.0121 21.8655 78.6599 20.3924 77.9555 19.1675C77.2512 17.9096 76.2952 16.9495 75.0878 16.2874C73.9138 15.6253 72.5722 15.2943 71.0628 15.2943C69.5535 15.2943 68.1951 15.6253 66.9876 16.2874C65.7801 16.9495 64.8242 17.9096 64.1199 19.1675C63.4155 20.3924 63.0633 21.8655 63.0633 23.587C63.0633 25.2753 63.4155 26.7485 64.1199 28.0064C64.8242 29.2644 65.7801 30.2244 66.9876 30.8865C68.1951 31.5486 69.5535 31.8797 71.0628 31.8797Z" fill="white"></path><path d="M38.4648 37.196V11.1288H44.3055V18.3046L43.6184 16.2056C44.4037 14.4482 45.6307 13.114 47.2994 12.2028C49.0009 11.2915 51.1114 10.8359 53.6309 10.8359V16.6449C53.3691 16.5798 53.1237 16.5473 52.8947 16.5473C52.6656 16.5147 52.4366 16.4985 52.2075 16.4985C49.8844 16.4985 48.0357 17.1819 46.6614 18.5487C45.2871 19.883 44.6 21.8844 44.6 24.5529V37.196H38.4648Z" fill="white"></path></svg>